<?xml version="1.0" encoding="UTF-8" standalone="no"?>
<!DOCTYPE svg PUBLIC "-//W3C//DTD SVG 1.1//EN"
 "http://www.w3.org/Graphics/SVG/1.1/DTD/svg11.dtd">
<!-- Generated by graphviz version 2.47.0 (20210316.0004)
 -->
<!-- Title: dependencies Pages: 1 -->
<svg width="504pt" height="211pt"
 viewBox="0.00 0.00 504.00 211.00" xmlns="http://www.w3.org/2000/svg" xmlns:xlink="http://www.w3.org/1999/xlink">
<g id="graph0" class="graph" transform="scale(1 1) rotate(0) translate(4 207)">
<title>dependencies</title>
<polygon fill="white" stroke="transparent" points="-4,4 -4,-207 500,-207 500,4 -4,4"/>
<text text-anchor="start" x="227.01" y="-42.4" font-family="Times-12" font-weight="bold" font-size="14.00">Legend</text>
<polygon fill="#ffffb3" stroke="transparent" points="14,-10 14,-30 34,-30 34,-10 14,-10"/>
<text text-anchor="start" x="37.63" y="-15.4" font-family="Times-12" font-size="14.00"> &#160;Declarations</text>
<polygon fill="#8dd3c7" stroke="transparent" points="127,-10 127,-30 147,-30 147,-10 127,-10"/>
<text text-anchor="start" x="150.73" y="-15.4" font-family="Times-12" font-size="14.00"> &#160;Module</text>
<polygon fill="#80b1d3" stroke="transparent" points="213,-10 213,-30 233,-30 233,-10 213,-10"/>
<text text-anchor="start" x="236.78" y="-15.4" font-family="Times-12" font-size="14.00"> &#160;Bootstrap</text>
<polygon fill="#fdb462" stroke="transparent" points="310,-10 310,-30 330,-30 330,-10 310,-10"/>
<text text-anchor="start" x="333.67" y="-15.4" font-family="Times-12" font-size="14.00"> &#160;Providers</text>
<polygon fill="#fb8072" stroke="transparent" points="406,-10 406,-30 426,-30 426,-10 406,-10"/>
<text text-anchor="start" x="429.73" y="-15.4" font-family="Times-12" font-size="14.00"> &#160;Exports</text>
<g id="clust1" class="cluster">
<title>cluster_ReposModule</title>
<polygon fill="none" stroke="black" stroke-dasharray="1,5" points="19,-70 19,-195 477,-195 477,-70 19,-70"/>
</g>
<g id="clust4" class="cluster">
<title>cluster_ReposModule_imports</title>
<polygon fill="none" stroke="black" points="197,-78 197,-130 469,-130 469,-78 197,-78"/>
</g>
<g id="clust2" class="cluster">
<title>cluster_ReposModule_declarations</title>
<polygon fill="none" stroke="black" points="27,-78 27,-130 189,-130 189,-78 27,-78"/>
</g>
<!-- ReposMainComponent -->
<g id="node1" class="node">
<title>ReposMainComponent</title>
<polygon fill="#ffffb3" stroke="black" points="180.88,-122 35.12,-122 35.12,-86 180.88,-86 180.88,-122"/>
<text text-anchor="middle" x="108" y="-99.8" font-family="Times,serif" font-size="14.00">ReposMainComponent</text>
</g>
<!-- ReposModule -->
<g id="node2" class="node">
<title>ReposModule</title>
<polygon fill="#8dd3c7" stroke="black" points="301.05,-187 298.05,-191 277.05,-191 274.05,-187 206.95,-187 206.95,-151 301.05,-151 301.05,-187"/>
<text text-anchor="middle" x="254" y="-164.8" font-family="Times,serif" font-size="14.00">ReposModule</text>
</g>
<!-- ReposMainComponent&#45;&gt;ReposModule -->
<g id="edge1" class="edge">
<title>ReposMainComponent&#45;&gt;ReposModule</title>
<path fill="none" stroke="black" d="M108,-122.11C108,-141.34 108,-169 108,-169 108,-169 196.6,-169 196.6,-169"/>
<polygon fill="black" stroke="black" points="196.6,-172.5 206.6,-169 196.6,-165.5 196.6,-172.5"/>
</g>
<!-- ReposRoutingModule -->
<g id="node3" class="node">
<title>ReposRoutingModule</title>
<polygon fill="#8dd3c7" stroke="black" points="460.66,-122 457.66,-126 436.66,-126 433.66,-122 321.34,-122 321.34,-86 460.66,-86 460.66,-122"/>
<text text-anchor="middle" x="391" y="-99.8" font-family="Times,serif" font-size="14.00">ReposRoutingModule</text>
</g>
<!-- ReposRoutingModule&#45;&gt;ReposModule -->
<g id="edge2" class="edge">
<title>ReposRoutingModule&#45;&gt;ReposModule</title>
<path fill="none" stroke="black" d="M391,-122.11C391,-141.34 391,-169 391,-169 391,-169 311.15,-169 311.15,-169"/>
<polygon fill="black" stroke="black" points="311.15,-165.5 301.15,-169 311.15,-172.5 311.15,-165.5"/>
</g>
<!-- SharedModule -->
<g id="node4" class="node">
<title>SharedModule</title>
<polygon fill="#8dd3c7" stroke="black" points="303.42,-122 300.42,-126 279.42,-126 276.42,-122 204.58,-122 204.58,-86 303.42,-86 303.42,-122"/>
<text text-anchor="middle" x="254" y="-99.8" font-family="Times,serif" font-size="14.00">SharedModule</text>
</g>
<!-- SharedModule&#45;&gt;ReposModule -->
<g id="edge3" class="edge">
<title>SharedModule&#45;&gt;ReposModule</title>
<path fill="none" stroke="black" d="M254,-122.11C254,-122.11 254,-140.99 254,-140.99"/>
<polygon fill="black" stroke="black" points="250.5,-140.99 254,-150.99 257.5,-140.99 250.5,-140.99"/>
</g>
</g>
</svg>
