<?xml version="1.0" encoding="UTF-8" standalone="no"?>
<!DOCTYPE svg PUBLIC "-//W3C//DTD SVG 1.1//EN"
 "http://www.w3.org/Graphics/SVG/1.1/DTD/svg11.dtd">
<!-- Generated by graphviz version 2.47.0 (20210316.0004)
 -->
<!-- Title: dependencies Pages: 1 -->
<svg width="514pt" height="211pt"
 viewBox="0.00 0.00 514.00 211.00" xmlns="http://www.w3.org/2000/svg" xmlns:xlink="http://www.w3.org/1999/xlink">
<g id="graph0" class="graph" transform="scale(1 1) rotate(0) translate(4 207)">
<title>dependencies</title>
<polygon fill="white" stroke="transparent" points="-4,4 -4,-207 510,-207 510,4 -4,4"/>
<text text-anchor="start" x="232.01" y="-42.4" font-family="Times-12" font-weight="bold" font-size="14.00">Legend</text>
<polygon fill="#ffffb3" stroke="transparent" points="19,-10 19,-30 39,-30 39,-10 19,-10"/>
<text text-anchor="start" x="42.63" y="-15.4" font-family="Times-12" font-size="14.00"> &#160;Declarations</text>
<polygon fill="#8dd3c7" stroke="transparent" points="132,-10 132,-30 152,-30 152,-10 132,-10"/>
<text text-anchor="start" x="155.73" y="-15.4" font-family="Times-12" font-size="14.00"> &#160;Module</text>
<polygon fill="#80b1d3" stroke="transparent" points="218,-10 218,-30 238,-30 238,-10 218,-10"/>
<text text-anchor="start" x="241.78" y="-15.4" font-family="Times-12" font-size="14.00"> &#160;Bootstrap</text>
<polygon fill="#fdb462" stroke="transparent" points="315,-10 315,-30 335,-30 335,-10 315,-10"/>
<text text-anchor="start" x="338.67" y="-15.4" font-family="Times-12" font-size="14.00"> &#160;Providers</text>
<polygon fill="#fb8072" stroke="transparent" points="411,-10 411,-30 431,-30 431,-10 411,-10"/>
<text text-anchor="start" x="434.73" y="-15.4" font-family="Times-12" font-size="14.00"> &#160;Exports</text>
<g id="clust1" class="cluster">
<title>cluster_CommitsModule</title>
<polygon fill="none" stroke="black" stroke-dasharray="1,5" points="8,-70 8,-195 498,-195 498,-70 8,-70"/>
</g>
<g id="clust2" class="cluster">
<title>cluster_CommitsModule_declarations</title>
<polygon fill="none" stroke="black" points="312,-78 312,-130 490,-130 490,-78 312,-78"/>
</g>
<g id="clust4" class="cluster">
<title>cluster_CommitsModule_imports</title>
<polygon fill="none" stroke="black" points="16,-78 16,-130 304,-130 304,-78 16,-78"/>
</g>
<!-- CommitsMainComponent -->
<g id="node1" class="node">
<title>CommitsMainComponent</title>
<polygon fill="#ffffb3" stroke="black" points="482.23,-122 319.77,-122 319.77,-86 482.23,-86 482.23,-122"/>
<text text-anchor="middle" x="401" y="-99.8" font-family="Times,serif" font-size="14.00">CommitsMainComponent</text>
</g>
<!-- CommitsModule -->
<g id="node2" class="node">
<title>CommitsModule</title>
<polygon fill="#8dd3c7" stroke="black" points="273.39,-187 270.39,-191 249.39,-191 246.39,-187 162.61,-187 162.61,-151 273.39,-151 273.39,-187"/>
<text text-anchor="middle" x="218" y="-164.8" font-family="Times,serif" font-size="14.00">CommitsModule</text>
</g>
<!-- CommitsMainComponent&#45;&gt;CommitsModule -->
<g id="edge1" class="edge">
<title>CommitsMainComponent&#45;&gt;CommitsModule</title>
<path fill="none" stroke="black" d="M401,-122.11C401,-141.34 401,-169 401,-169 401,-169 283.4,-169 283.4,-169"/>
<polygon fill="black" stroke="black" points="283.4,-165.5 273.4,-169 283.4,-172.5 283.4,-165.5"/>
</g>
<!-- CommitsRoutingModule -->
<g id="node3" class="node">
<title>CommitsRoutingModule</title>
<polygon fill="#8dd3c7" stroke="black" points="296.01,-122 293.01,-126 272.01,-126 269.01,-122 139.99,-122 139.99,-86 296.01,-86 296.01,-122"/>
<text text-anchor="middle" x="218" y="-99.8" font-family="Times,serif" font-size="14.00">CommitsRoutingModule</text>
</g>
<!-- CommitsRoutingModule&#45;&gt;CommitsModule -->
<g id="edge2" class="edge">
<title>CommitsRoutingModule&#45;&gt;CommitsModule</title>
<path fill="none" stroke="black" d="M218,-122.11C218,-122.11 218,-140.99 218,-140.99"/>
<polygon fill="black" stroke="black" points="214.5,-140.99 218,-150.99 221.5,-140.99 214.5,-140.99"/>
</g>
<!-- SharedModule -->
<g id="node4" class="node">
<title>SharedModule</title>
<polygon fill="#8dd3c7" stroke="black" points="122.42,-122 119.42,-126 98.42,-126 95.42,-122 23.58,-122 23.58,-86 122.42,-86 122.42,-122"/>
<text text-anchor="middle" x="73" y="-99.8" font-family="Times,serif" font-size="14.00">SharedModule</text>
</g>
<!-- SharedModule&#45;&gt;CommitsModule -->
<g id="edge3" class="edge">
<title>SharedModule&#45;&gt;CommitsModule</title>
<path fill="none" stroke="black" d="M73,-122.11C73,-141.34 73,-169 73,-169 73,-169 152.35,-169 152.35,-169"/>
<polygon fill="black" stroke="black" points="152.35,-172.5 162.35,-169 152.35,-165.5 152.35,-172.5"/>
</g>
</g>
</svg>
