<?xml version="1.0" encoding="UTF-8" standalone="no"?>
<!DOCTYPE svg PUBLIC "-//W3C//DTD SVG 1.1//EN"
 "http://www.w3.org/Graphics/SVG/1.1/DTD/svg11.dtd">
<!-- Generated by graphviz version 2.47.0 (20210316.0004)
 -->
<!-- Title: dependencies Pages: 1 -->
<svg width="1335pt" height="287pt"
 viewBox="0.00 0.00 1335.00 287.00" xmlns="http://www.w3.org/2000/svg" xmlns:xlink="http://www.w3.org/1999/xlink">
<g id="graph0" class="graph" transform="scale(1 1) rotate(0) translate(4 283)">
<title>dependencies</title>
<polygon fill="white" stroke="transparent" points="-4,4 -4,-283 1331,-283 1331,4 -4,4"/>
<text text-anchor="start" x="642.51" y="-42.4" font-family="Times-12" font-weight="bold" font-size="14.00">Legend</text>
<polygon fill="#ffffb3" stroke="transparent" points="429.5,-10 429.5,-30 449.5,-30 449.5,-10 429.5,-10"/>
<text text-anchor="start" x="453.13" y="-15.4" font-family="Times-12" font-size="14.00"> &#160;Declarations</text>
<polygon fill="#8dd3c7" stroke="transparent" points="542.5,-10 542.5,-30 562.5,-30 562.5,-10 542.5,-10"/>
<text text-anchor="start" x="566.23" y="-15.4" font-family="Times-12" font-size="14.00"> &#160;Module</text>
<polygon fill="#80b1d3" stroke="transparent" points="628.5,-10 628.5,-30 648.5,-30 648.5,-10 628.5,-10"/>
<text text-anchor="start" x="652.28" y="-15.4" font-family="Times-12" font-size="14.00"> &#160;Bootstrap</text>
<polygon fill="#fdb462" stroke="transparent" points="725.5,-10 725.5,-30 745.5,-30 745.5,-10 725.5,-10"/>
<text text-anchor="start" x="749.17" y="-15.4" font-family="Times-12" font-size="14.00"> &#160;Providers</text>
<polygon fill="#fb8072" stroke="transparent" points="821.5,-10 821.5,-30 841.5,-30 841.5,-10 821.5,-10"/>
<text text-anchor="start" x="845.23" y="-15.4" font-family="Times-12" font-size="14.00"> &#160;Exports</text>
<g id="clust1" class="cluster">
<title>cluster_AppModule</title>
<polygon fill="none" stroke="black" stroke-dasharray="1,5" points="8,-70 8,-271 431,-271 431,-70 8,-70"/>
</g>
<g id="clust7" class="cluster">
<title>cluster_AppModule_bootstrap</title>
<polygon fill="none" stroke="black" points="148,-211 148,-263 272,-263 272,-211 148,-211"/>
</g>
<g id="clust5" class="cluster">
<title>cluster_AppModule_imports</title>
<polygon fill="none" stroke="black" points="279,-78 279,-130 423,-130 423,-78 279,-78"/>
</g>
<g id="clust2" class="cluster">
<title>cluster_AppModule_declarations</title>
<polygon fill="none" stroke="black" points="16,-78 16,-130 271,-130 271,-78 16,-78"/>
</g>
<g id="clust41" class="cluster">
<title>cluster_SharedModule</title>
<polygon fill="none" stroke="black" stroke-dasharray="1,5" points="821,-70 821,-271 969,-271 969,-70 821,-70"/>
</g>
<g id="clust42" class="cluster">
<title>cluster_SharedModule_declarations</title>
<polygon fill="none" stroke="black" points="830,-78 830,-130 960,-130 960,-78 830,-78"/>
</g>
<g id="clust45" class="cluster">
<title>cluster_SharedModule_exports</title>
<polygon fill="none" stroke="black" points="829,-211 829,-263 961,-263 961,-211 829,-211"/>
</g>
<g id="clust15" class="cluster">
<title>cluster_CommitsModule</title>
<polygon fill="none" stroke="black" stroke-dasharray="1,5" points="439,-138 439,-263 813,-263 813,-138 439,-138"/>
</g>
<g id="clust18" class="cluster">
<title>cluster_CommitsModule_imports</title>
<polygon fill="none" stroke="black" points="633,-146 633,-198 805,-198 805,-146 633,-146"/>
</g>
<g id="clust16" class="cluster">
<title>cluster_CommitsModule_declarations</title>
<polygon fill="none" stroke="black" points="447,-146 447,-198 625,-198 625,-146 447,-146"/>
</g>
<g id="clust28" class="cluster">
<title>cluster_ReposModule</title>
<polygon fill="none" stroke="black" stroke-dasharray="1,5" points="977,-138 977,-263 1319,-263 1319,-138 977,-138"/>
</g>
<g id="clust31" class="cluster">
<title>cluster_ReposModule_imports</title>
<polygon fill="none" stroke="black" points="1155,-146 1155,-198 1311,-198 1311,-146 1155,-146"/>
</g>
<g id="clust29" class="cluster">
<title>cluster_ReposModule_declarations</title>
<polygon fill="none" stroke="black" points="985,-146 985,-198 1147,-198 1147,-146 985,-146"/>
</g>
<!-- AppComponent -->
<g id="node1" class="node">
<title>AppComponent</title>
<polygon fill="#ffffb3" stroke="black" points="262.94,-122 157.06,-122 157.06,-86 262.94,-86 262.94,-122"/>
<text text-anchor="middle" x="210" y="-99.8" font-family="Times,serif" font-size="14.00">AppComponent</text>
</g>
<!-- AppModule -->
<g id="node3" class="node">
<title>AppModule</title>
<polygon fill="#8dd3c7" stroke="black" points="251.66,-190 248.66,-194 227.66,-194 224.66,-190 168.34,-190 168.34,-154 251.66,-154 251.66,-190"/>
<text text-anchor="middle" x="210" y="-167.8" font-family="Times,serif" font-size="14.00">AppModule</text>
</g>
<!-- AppComponent&#45;&gt;AppModule -->
<g id="edge1" class="edge">
<title>AppComponent&#45;&gt;AppModule</title>
<path fill="none" stroke="black" d="M210,-122.22C210,-122.22 210,-143.73 210,-143.73"/>
<polygon fill="black" stroke="black" points="206.5,-143.73 210,-153.73 213.5,-143.73 206.5,-143.73"/>
</g>
<!-- HomeComponent -->
<g id="node2" class="node">
<title>HomeComponent</title>
<polygon fill="#ffffb3" stroke="black" points="139.55,-122 24.45,-122 24.45,-86 139.55,-86 139.55,-122"/>
<text text-anchor="middle" x="82" y="-99.8" font-family="Times,serif" font-size="14.00">HomeComponent</text>
</g>
<!-- HomeComponent&#45;&gt;AppModule -->
<g id="edge2" class="edge">
<title>HomeComponent&#45;&gt;AppModule</title>
<path fill="none" stroke="black" d="M82,-122.22C82,-142.37 82,-172 82,-172 82,-172 158.09,-172 158.09,-172"/>
<polygon fill="black" stroke="black" points="158.09,-175.5 168.09,-172 158.09,-168.5 158.09,-175.5"/>
</g>
<!-- AppComponent  -->
<g id="node5" class="node">
<title>AppComponent </title>
<polygon fill="#80b1d3" stroke="black" points="264.44,-255 155.56,-255 155.56,-219 264.44,-219 264.44,-255"/>
<text text-anchor="middle" x="210" y="-232.8" font-family="Times,serif" font-size="14.00">AppComponent </text>
</g>
<!-- AppModule&#45;&gt;AppComponent  -->
<g id="edge4" class="edge">
<title>AppModule&#45;&gt;AppComponent </title>
<path fill="none" stroke="black" stroke-dasharray="1,5" d="M210,-190.11C210,-190.11 210,-208.99 210,-208.99"/>
<polygon fill="black" stroke="black" points="206.5,-208.99 210,-218.99 213.5,-208.99 206.5,-208.99"/>
</g>
<!-- AppRoutingModule -->
<g id="node4" class="node">
<title>AppRoutingModule</title>
<polygon fill="#8dd3c7" stroke="black" points="415.27,-122 412.27,-126 391.27,-126 388.27,-122 286.73,-122 286.73,-86 415.27,-86 415.27,-122"/>
<text text-anchor="middle" x="351" y="-99.8" font-family="Times,serif" font-size="14.00">AppRoutingModule</text>
</g>
<!-- AppRoutingModule&#45;&gt;AppModule -->
<g id="edge3" class="edge">
<title>AppRoutingModule&#45;&gt;AppModule</title>
<path fill="none" stroke="black" d="M351,-122.22C351,-142.37 351,-172 351,-172 351,-172 261.92,-172 261.92,-172"/>
<polygon fill="black" stroke="black" points="261.92,-168.5 251.92,-172 261.92,-175.5 261.92,-168.5"/>
</g>
<!-- CommitsMainComponent -->
<g id="node6" class="node">
<title>CommitsMainComponent</title>
<polygon fill="#ffffb3" stroke="black" points="617.23,-190 454.77,-190 454.77,-154 617.23,-154 617.23,-190"/>
<text text-anchor="middle" x="536" y="-167.8" font-family="Times,serif" font-size="14.00">CommitsMainComponent</text>
</g>
<!-- CommitsModule -->
<g id="node7" class="node">
<title>CommitsModule</title>
<polygon fill="#8dd3c7" stroke="black" points="774.39,-255 771.39,-259 750.39,-259 747.39,-255 663.61,-255 663.61,-219 774.39,-219 774.39,-255"/>
<text text-anchor="middle" x="719" y="-232.8" font-family="Times,serif" font-size="14.00">CommitsModule</text>
</g>
<!-- CommitsMainComponent&#45;&gt;CommitsModule -->
<g id="edge5" class="edge">
<title>CommitsMainComponent&#45;&gt;CommitsModule</title>
<path fill="none" stroke="black" d="M536,-190.11C536,-209.34 536,-237 536,-237 536,-237 653.6,-237 653.6,-237"/>
<polygon fill="black" stroke="black" points="653.6,-240.5 663.6,-237 653.6,-233.5 653.6,-240.5"/>
</g>
<!-- CommitsRoutingModule -->
<g id="node8" class="node">
<title>CommitsRoutingModule</title>
<polygon fill="#8dd3c7" stroke="black" points="797.01,-190 794.01,-194 773.01,-194 770.01,-190 640.99,-190 640.99,-154 797.01,-154 797.01,-190"/>
<text text-anchor="middle" x="719" y="-167.8" font-family="Times,serif" font-size="14.00">CommitsRoutingModule</text>
</g>
<!-- CommitsRoutingModule&#45;&gt;CommitsModule -->
<g id="edge6" class="edge">
<title>CommitsRoutingModule&#45;&gt;CommitsModule</title>
<path fill="none" stroke="black" d="M719,-190.11C719,-190.11 719,-208.99 719,-208.99"/>
<polygon fill="black" stroke="black" points="715.5,-208.99 719,-218.99 722.5,-208.99 715.5,-208.99"/>
</g>
<!-- SharedModule -->
<g id="node9" class="node">
<title>SharedModule</title>
<polygon fill="#8dd3c7" stroke="black" points="944.42,-190 941.42,-194 920.42,-194 917.42,-190 845.58,-190 845.58,-154 944.42,-154 944.42,-190"/>
<text text-anchor="middle" x="895" y="-167.8" font-family="Times,serif" font-size="14.00">SharedModule</text>
</g>
<!-- SharedModule&#45;&gt;CommitsModule -->
<g id="edge7" class="edge">
<title>SharedModule&#45;&gt;CommitsModule</title>
<path fill="none" stroke="black" d="M845.49,-172C829.98,-172 816.83,-172 816.83,-172 816.83,-172 816.83,-237 816.83,-237 816.83,-237 784.49,-237 784.49,-237"/>
<polygon fill="black" stroke="black" points="784.49,-233.5 774.49,-237 784.49,-240.5 784.49,-233.5"/>
</g>
<!-- ReposModule -->
<g id="node11" class="node">
<title>ReposModule</title>
<polygon fill="#8dd3c7" stroke="black" points="1113.05,-255 1110.05,-259 1089.05,-259 1086.05,-255 1018.95,-255 1018.95,-219 1113.05,-219 1113.05,-255"/>
<text text-anchor="middle" x="1066" y="-232.8" font-family="Times,serif" font-size="14.00">ReposModule</text>
</g>
<!-- SharedModule&#45;&gt;ReposModule -->
<g id="edge10" class="edge">
<title>SharedModule&#45;&gt;ReposModule</title>
<path fill="none" stroke="black" d="M944.53,-172C960.05,-172 973.21,-172 973.21,-172 973.21,-172 973.21,-237 973.21,-237 973.21,-237 1008.79,-237 1008.79,-237"/>
<polygon fill="black" stroke="black" points="1008.79,-240.5 1018.79,-237 1008.79,-233.5 1008.79,-240.5"/>
</g>
<!-- TableComponent  -->
<g id="node14" class="node">
<title>TableComponent </title>
<polygon fill="#fb8072" stroke="black" points="953.21,-255 836.79,-255 836.79,-219 953.21,-219 953.21,-255"/>
<text text-anchor="middle" x="895" y="-232.8" font-family="Times,serif" font-size="14.00">TableComponent </text>
</g>
<!-- SharedModule&#45;&gt;TableComponent  -->
<g id="edge12" class="edge">
<title>SharedModule&#45;&gt;TableComponent </title>
<path fill="none" stroke="black" stroke-dasharray="5,2" d="M895,-190.11C895,-190.11 895,-208.99 895,-208.99"/>
<polygon fill="black" stroke="black" points="891.5,-208.99 895,-218.99 898.5,-208.99 891.5,-208.99"/>
</g>
<!-- ReposMainComponent -->
<g id="node10" class="node">
<title>ReposMainComponent</title>
<polygon fill="#ffffb3" stroke="black" points="1138.88,-190 993.12,-190 993.12,-154 1138.88,-154 1138.88,-190"/>
<text text-anchor="middle" x="1066" y="-167.8" font-family="Times,serif" font-size="14.00">ReposMainComponent</text>
</g>
<!-- ReposMainComponent&#45;&gt;ReposModule -->
<g id="edge8" class="edge">
<title>ReposMainComponent&#45;&gt;ReposModule</title>
<path fill="none" stroke="black" d="M1066,-190.11C1066,-190.11 1066,-208.99 1066,-208.99"/>
<polygon fill="black" stroke="black" points="1062.5,-208.99 1066,-218.99 1069.5,-208.99 1062.5,-208.99"/>
</g>
<!-- ReposRoutingModule -->
<g id="node12" class="node">
<title>ReposRoutingModule</title>
<polygon fill="#8dd3c7" stroke="black" points="1302.66,-190 1299.66,-194 1278.66,-194 1275.66,-190 1163.34,-190 1163.34,-154 1302.66,-154 1302.66,-190"/>
<text text-anchor="middle" x="1233" y="-167.8" font-family="Times,serif" font-size="14.00">ReposRoutingModule</text>
</g>
<!-- ReposRoutingModule&#45;&gt;ReposModule -->
<g id="edge9" class="edge">
<title>ReposRoutingModule&#45;&gt;ReposModule</title>
<path fill="none" stroke="black" d="M1233,-190.11C1233,-209.34 1233,-237 1233,-237 1233,-237 1123.41,-237 1123.41,-237"/>
<polygon fill="black" stroke="black" points="1123.41,-233.5 1113.41,-237 1123.41,-240.5 1123.41,-233.5"/>
</g>
<!-- TableComponent -->
<g id="node13" class="node">
<title>TableComponent</title>
<polygon fill="#ffffb3" stroke="black" points="951.7,-122 838.3,-122 838.3,-86 951.7,-86 951.7,-122"/>
<text text-anchor="middle" x="895" y="-99.8" font-family="Times,serif" font-size="14.00">TableComponent</text>
</g>
<!-- TableComponent&#45;&gt;SharedModule -->
<g id="edge11" class="edge">
<title>TableComponent&#45;&gt;SharedModule</title>
<path fill="none" stroke="black" d="M895,-122.22C895,-122.22 895,-143.73 895,-143.73"/>
<polygon fill="black" stroke="black" points="891.5,-143.73 895,-153.73 898.5,-143.73 891.5,-143.73"/>
</g>
</g>
</svg>
